<?xml version="1.0" encoding="UTF-8" standalone="no"?>
<!DOCTYPE svg PUBLIC "-//W3C//DTD SVG 1.1//EN" "http://www.w3.org/Graphics/SVG/1.1/DTD/svg11.dtd">
<svg version="1.1" xmlns="http://www.w3.org/2000/svg" xmlns:xlink="http://www.w3.org/1999/xlink" preserveAspectRatio="xMidYMid meet" viewBox="0 0 640 640" width="640" height="640"><defs><path d="M308.81 439.03C218.6 439.03 145.37 365.8 145.37 275.6C145.37 185.4 218.6 112.16 308.81 112.16C399.01 112.16 472.24 185.4 472.24 275.6C472.24 365.8 399.01 439.03 308.81 439.03Z" id="b471yaWbXe"></path><path d="M308.81 439.03C218.6 439.03 145.37 365.8 145.37 275.6C145.37 185.4 218.6 112.16 308.81 112.16C399.01 112.16 472.24 185.4 472.24 275.6C472.24 365.8 399.01 439.03 308.81 439.03Z" id="bVWbovWx9"></path><path d="M309.94 439.03C252.07 439.03 205.09 393.05 205.09 336.42C205.09 279.78 252.07 233.81 309.94 233.81C367.81 233.81 414.79 279.78 414.79 336.42C414.79 393.05 367.81 439.03 309.94 439.03Z" id="c6HNmGJco"></path><path d="M309.94 439.03C252.07 439.03 205.09 393.05 205.09 336.42C205.09 279.78 252.07 233.81 309.94 233.81C367.81 233.81 414.79 279.78 414.79 336.42C414.79 393.05 367.81 439.03 309.94 439.03Z" id="eX291C2fd"></path><path d="M246.49 253.96C219.1 253.96 196.87 231.22 196.87 203.21C196.87 175.2 219.1 152.46 246.49 152.46C273.88 152.46 296.12 175.2 296.12 203.21C296.12 231.22 273.88 253.96 246.49 253.96Z" id="a9kd8auSt7"></path><path d="M246.49 253.96C219.1 253.96 196.87 231.22 196.87 203.21C196.87 175.2 219.1 152.46 246.49 152.46C273.88 152.46 296.12 175.2 296.12 203.21C296.12 231.22 273.88 253.96 246.49 253.96Z" id="cyQ9q76KJ"></path><path d="M369.63 253.96C342.24 253.96 320 231.22 320 203.21C320 175.2 342.24 152.46 369.63 152.46C397.02 152.46 419.25 175.2 419.25 203.21C419.25 231.22 397.02 253.96 369.63 253.96Z" id="a1rkceeEQ"></path><path d="M369.63 253.96C342.24 253.96 320 231.22 320 203.21C320 175.2 342.24 152.46 369.63 152.46C397.02 152.46 419.25 175.2 419.25 203.21C419.25 231.22 397.02 253.96 369.63 253.96Z" id="b1hkHMonf"></path><path d="M313.45 233.06C334.5 233.06 354.8 240.02 374.35 253.96C346.87 279.38 329.7 295.27 322.83 301.63C318.88 305.28 312.87 305.51 308.65 302.19C300.49 295.75 280.11 279.68 247.49 253.96C270.42 240.02 292.4 233.06 313.45 233.06Z" id="bgzG0aXD8"></path><path d="M354.7 233.81C335.55 233.81 320 221.27 320 205.82C320 190.38 335.55 177.84 354.7 177.84C373.85 177.84 389.4 190.38 389.4 205.82C389.4 221.27 373.85 233.81 354.7 233.81Z" id="emc0nUQ9l"></path><path d="M354.7 233.81C335.55 233.81 320 221.27 320 205.82C320 190.38 335.55 177.84 354.7 177.84C373.85 177.84 389.4 190.38 389.4 205.82C389.4 221.27 373.85 233.81 354.7 233.81Z" id="b9wkYxgWk"></path><path d="M263.96 233.81C244.8 233.81 229.25 221.27 229.25 205.82C229.25 190.38 244.8 177.84 263.96 177.84C283.11 177.84 298.66 190.38 298.66 205.82C298.66 221.27 283.11 233.81 263.96 233.81Z" id="aC85cTufZ"></path><path d="M263.96 233.81C244.8 233.81 229.25 221.27 229.25 205.82C229.25 190.38 244.8 177.84 263.96 177.84C283.11 177.84 298.66 190.38 298.66 205.82C298.66 221.27 283.11 233.81 263.96 233.81Z" id="aohKpNCU"></path><path d="M250.78 205.82C244.71 205.82 239.78 200.81 239.78 194.63C239.78 188.45 244.71 183.43 250.78 183.43C256.86 183.43 261.79 188.45 261.79 194.63C261.79 200.81 256.86 205.82 250.78 205.82Z" id="d68JvHpXl"></path><path d="M369.63 205.82C363.55 205.82 358.62 200.81 358.62 194.63C358.62 188.45 363.55 183.43 369.63 183.43C375.7 183.43 380.63 188.45 380.63 194.63C380.63 200.81 375.7 205.82 369.63 205.82Z" id="b1qtRNBYJN"></path></defs><g><g><g><use xlink:href="#b471yaWbXe" opacity="1" fill="#383838" fill-opacity="1"></use><g><use xlink:href="#b471yaWbXe" opacity="1" fill-opacity="0" stroke="#000000" stroke-width="1" stroke-opacity="0"></use></g></g><g><use xlink:href="#bVWbovWx9" opacity="1" fill="#000000" fill-opacity="0"></use><g><use xlink:href="#bVWbovWx9" opacity="1" fill-opacity="0" stroke="#242424" stroke-width="0" stroke-opacity="1"></use></g></g><g><use xlink:href="#c6HNmGJco" opacity="1" fill="#ffffff" fill-opacity="1"></use><g><use xlink:href="#c6HNmGJco" opacity="1" fill-opacity="0" stroke="#000000" stroke-width="1" stroke-opacity="0"></use></g></g><g><use xlink:href="#eX291C2fd" opacity="1" fill="#000000" fill-opacity="0"></use><g><use xlink:href="#eX291C2fd" opacity="1" fill-opacity="0" stroke="#5a23e5" stroke-width="0" stroke-opacity="1"></use></g></g><g><use xlink:href="#a9kd8auSt7" opacity="1" fill="#ffffff" fill-opacity="1"></use><g><use xlink:href="#a9kd8auSt7" opacity="1" fill-opacity="0" stroke="#000000" stroke-width="1" stroke-opacity="0"></use></g></g><g><use xlink:href="#cyQ9q76KJ" opacity="1" fill="#000000" fill-opacity="0"></use><g><use xlink:href="#cyQ9q76KJ" opacity="1" fill-opacity="0" stroke="#5a23e5" stroke-width="0" stroke-opacity="1"></use></g></g><g><use xlink:href="#a1rkceeEQ" opacity="1" fill="#ffffff" fill-opacity="1"></use><g><use xlink:href="#a1rkceeEQ" opacity="1" fill-opacity="0" stroke="#000000" stroke-width="1" stroke-opacity="0"></use></g></g><g><use xlink:href="#b1hkHMonf" opacity="1" fill="#000000" fill-opacity="0"></use><g><use xlink:href="#b1hkHMonf" opacity="1" fill-opacity="0" stroke="#5a23e5" stroke-width="0" stroke-opacity="1"></use></g></g><g><use xlink:href="#bgzG0aXD8" opacity="1" fill="#e6cd2f" fill-opacity="1"></use><g><use xlink:href="#bgzG0aXD8" opacity="1" fill-opacity="0" stroke="#000000" stroke-width="1" stroke-opacity="0"></use></g></g><g><use xlink:href="#emc0nUQ9l" opacity="1" fill="#353535" fill-opacity="1"></use><g><use xlink:href="#emc0nUQ9l" opacity="1" fill-opacity="0" stroke="#000000" stroke-width="1" stroke-opacity="0"></use></g></g><g><use xlink:href="#b9wkYxgWk" opacity="1" fill="#000000" fill-opacity="0"></use><g><use xlink:href="#b9wkYxgWk" opacity="1" fill-opacity="0" stroke="#000000" stroke-width="0" stroke-opacity="1"></use></g></g><g><use xlink:href="#aC85cTufZ" opacity="1" fill="#353535" fill-opacity="1"></use><g><use xlink:href="#aC85cTufZ" opacity="1" fill-opacity="0" stroke="#000000" stroke-width="1" stroke-opacity="0"></use></g></g><g><use xlink:href="#aohKpNCU" opacity="1" fill="#000000" fill-opacity="0"></use><g><use xlink:href="#aohKpNCU" opacity="1" fill-opacity="0" stroke="#000000" stroke-width="0" stroke-opacity="1"></use></g></g><g><use xlink:href="#d68JvHpXl" opacity="1" fill="#ffffff" fill-opacity="1"></use><g><use xlink:href="#d68JvHpXl" opacity="1" fill-opacity="0" stroke="#000000" stroke-width="1" stroke-opacity="0"></use></g></g><g><use xlink:href="#b1qtRNBYJN" opacity="1" fill="#ffffff" fill-opacity="1"></use><g><use xlink:href="#b1qtRNBYJN" opacity="1" fill-opacity="0" stroke="#000000" stroke-width="1" stroke-opacity="0"></use></g></g></g></g></svg>